<?xml version="1.0" encoding="UTF-8" standalone="no"?>
<!DOCTYPE svg PUBLIC "-//W3C//DTD SVG 1.1//EN"
 "http://www.w3.org/Graphics/SVG/1.1/DTD/svg11.dtd">
<!-- Generated by graphviz version 2.40.1 (20161225.0304)
 -->
<!-- Title: Caves Pages: 1 -->
<svg width="427pt" height="404pt"
 viewBox="0.00 0.00 427.00 404.00" xmlns="http://www.w3.org/2000/svg" xmlns:xlink="http://www.w3.org/1999/xlink">
<g id="graph0" class="graph" transform="scale(1 1) rotate(0) translate(4 400)">
<title>Caves</title>
<polygon fill="#ffffff" stroke="transparent" points="-4,4 -4,-400 423,-400 423,4 -4,4"/>
<!-- qi -->
<g id="node1" class="node">
<title>qi</title>
<ellipse fill="none" stroke="#000000" cx="274" cy="-378" rx="27" ry="18"/>
<text text-anchor="middle" x="274" y="-374.3" font-family="Times,serif" font-size="14.00" fill="#000000">qi</text>
</g>
<!-- UD -->
<g id="node2" class="node">
<title>UD</title>
<ellipse fill="none" stroke="#000000" cx="274" cy="-306" rx="27" ry="18"/>
<text text-anchor="middle" x="274" y="-302.3" font-family="Times,serif" font-size="14.00" fill="#000000">UD</text>
</g>
<!-- qi&#45;&#45;UD -->
<g id="edge1" class="edge">
<title>qi&#45;&#45;UD</title>
<path fill="none" stroke="#000000" d="M274,-359.8314C274,-349 274,-335.2876 274,-324.4133"/>
</g>
<!-- br -->
<g id="node4" class="node">
<title>br</title>
<ellipse fill="none" stroke="#000000" cx="27" cy="-306" rx="27" ry="18"/>
<text text-anchor="middle" x="27" y="-302.3" font-family="Times,serif" font-size="14.00" fill="#000000">br</text>
</g>
<!-- qi&#45;&#45;br -->
<g id="edge8" class="edge">
<title>qi&#45;&#45;br</title>
<path fill="none" stroke="#000000" d="M248.957,-370.7C201.4932,-356.8644 98.9721,-326.9797 51.742,-313.2122"/>
</g>
<!-- VO -->
<g id="node7" class="node">
<title>VO</title>
<ellipse fill="none" stroke="#000000" cx="392" cy="-306" rx="27" ry="18"/>
<text text-anchor="middle" x="392" y="-302.3" font-family="Times,serif" font-size="14.00" fill="#000000">VO</text>
</g>
<!-- qi&#45;&#45;VO -->
<g id="edge24" class="edge">
<title>qi&#45;&#45;VO</title>
<path fill="none" stroke="#000000" d="M294.0171,-365.7862C315.7158,-352.5463 350.1477,-331.537 371.8847,-318.2737"/>
</g>
<!-- wb -->
<g id="node5" class="node">
<title>wb</title>
<ellipse fill="none" stroke="#000000" cx="192" cy="-234" rx="27" ry="18"/>
<text text-anchor="middle" x="192" y="-230.3" font-family="Times,serif" font-size="14.00" fill="#000000">wb</text>
</g>
<!-- UD&#45;&#45;wb -->
<g id="edge22" class="edge">
<title>UD&#45;&#45;wb</title>
<path fill="none" stroke="#000000" d="M257.4061,-291.4297C243.1794,-278.938 222.7887,-261.034 208.5692,-248.5486"/>
</g>
<!-- aa -->
<g id="node8" class="node">
<title>aa</title>
<ellipse fill="none" stroke="#000000" cx="209" cy="-162" rx="27" ry="18"/>
<text text-anchor="middle" x="209" y="-158.3" font-family="Times,serif" font-size="14.00" fill="#000000">aa</text>
</g>
<!-- UD&#45;&#45;aa -->
<g id="edge5" class="edge">
<title>UD&#45;&#45;aa</title>
<path fill="none" stroke="#000000" d="M266.1595,-288.6302C253.6662,-260.9528 229.3791,-207.1475 216.8683,-179.4314"/>
</g>
<!-- start -->
<g id="node11" class="node">
<title>start</title>
<ellipse fill="none" stroke="#000000" cx="340" cy="-234" rx="27" ry="18"/>
<text text-anchor="middle" x="340" y="-230.3" font-family="Times,serif" font-size="14.00" fill="#000000">start</text>
</g>
<!-- UD&#45;&#45;start -->
<g id="edge10" class="edge">
<title>UD&#45;&#45;start</title>
<path fill="none" stroke="#000000" d="M288.321,-290.3771C299.3914,-278.3003 314.6436,-261.6616 325.7069,-249.5924"/>
</g>
<!-- jt -->
<g id="node3" class="node">
<title>jt</title>
<ellipse fill="none" stroke="#000000" cx="27" cy="-378" rx="27" ry="18"/>
<text text-anchor="middle" x="27" y="-374.3" font-family="Times,serif" font-size="14.00" fill="#000000">jt</text>
</g>
<!-- jt&#45;&#45;br -->
<g id="edge2" class="edge">
<title>jt&#45;&#45;br</title>
<path fill="none" stroke="#000000" d="M27,-359.8314C27,-349 27,-335.2876 27,-324.4133"/>
</g>
<!-- TF -->
<g id="node6" class="node">
<title>TF</title>
<ellipse fill="none" stroke="#000000" cx="137" cy="-162" rx="27" ry="18"/>
<text text-anchor="middle" x="137" y="-158.3" font-family="Times,serif" font-size="14.00" fill="#000000">TF</text>
</g>
<!-- br&#45;&#45;TF -->
<g id="edge25" class="edge">
<title>br&#45;&#45;TF</title>
<path fill="none" stroke="#000000" d="M26.6883,-287.7327C27.2398,-268.2384 30.7477,-237.2902 46,-216 62.369,-193.151 91.6765,-178.3253 112.6101,-170.094"/>
</g>
<!-- end -->
<g id="node9" class="node">
<title>end</title>
<ellipse fill="none" stroke="#000000" cx="82" cy="-234" rx="27" ry="18"/>
<text text-anchor="middle" x="82" y="-230.3" font-family="Times,serif" font-size="14.00" fill="#000000">end</text>
</g>
<!-- br&#45;&#45;end -->
<g id="edge6" class="edge">
<title>br&#45;&#45;end</title>
<path fill="none" stroke="#000000" d="M39.4804,-289.6621C48.4814,-277.8788 60.5793,-262.0416 69.569,-250.2733"/>
</g>
<!-- HA -->
<g id="node10" class="node">
<title>HA</title>
<ellipse fill="none" stroke="#000000" cx="82" cy="-18" rx="27" ry="18"/>
<text text-anchor="middle" x="82" y="-14.3" font-family="Times,serif" font-size="14.00" fill="#000000">HA</text>
</g>
<!-- br&#45;&#45;HA -->
<g id="edge9" class="edge">
<title>br&#45;&#45;HA</title>
<path fill="none" stroke="#000000" d="M22.16,-288.002C17.9267,-269.7849 13.0273,-240.8382 17,-216 28.0567,-146.8705 59.5348,-69.1233 74.2459,-35.2813"/>
</g>
<!-- hf -->
<g id="node12" class="node">
<title>hf</title>
<ellipse fill="none" stroke="#000000" cx="173" cy="-90" rx="27" ry="18"/>
<text text-anchor="middle" x="173" y="-86.3" font-family="Times,serif" font-size="14.00" fill="#000000">hf</text>
</g>
<!-- br&#45;&#45;hf -->
<g id="edge12" class="edge">
<title>br&#45;&#45;hf</title>
<path fill="none" stroke="#000000" d="M23.3021,-287.932C20.3311,-269.1508 18.1026,-239.299 28,-216 52.0577,-159.3672 116.7534,-118.9192 151.0153,-100.743"/>
</g>
<!-- wb&#45;&#45;TF -->
<g id="edge3" class="edge">
<title>wb&#45;&#45;TF</title>
<path fill="none" stroke="#000000" d="M179.5196,-217.6621C170.5186,-205.8788 158.4207,-190.0416 149.431,-178.2733"/>
</g>
<!-- wb&#45;&#45;aa -->
<g id="edge21" class="edge">
<title>wb&#45;&#45;aa</title>
<path fill="none" stroke="#000000" d="M196.2022,-216.2022C198.8177,-205.1252 202.1698,-190.928 204.7872,-179.8425"/>
</g>
<!-- TF&#45;&#45;qi -->
<g id="edge11" class="edge">
<title>TF&#45;&#45;qi</title>
<path fill="none" stroke="#000000" d="M133.8239,-180.0769C129.2079,-212.3335 124.3373,-280.4992 156,-324 177.7434,-353.8728 220.0553,-367.6327 247.6588,-373.6646"/>
</g>
<!-- TF&#45;&#45;hf -->
<g id="edge19" class="edge">
<title>TF&#45;&#45;hf</title>
<path fill="none" stroke="#000000" d="M145.7146,-144.5708C151.3747,-133.2506 158.7216,-118.5568 164.3657,-107.2687"/>
</g>
<!-- VO&#45;&#45;aa -->
<g id="edge4" class="edge">
<title>VO&#45;&#45;aa</title>
<path fill="none" stroke="#000000" d="M393.8767,-287.8134C394.8996,-267.8049 393.3114,-235.8578 376,-216 357.3283,-194.5818 277.2291,-175.7109 235.1139,-167.0432"/>
</g>
<!-- VO&#45;&#45;start -->
<g id="edge20" class="edge">
<title>VO&#45;&#45;start</title>
<path fill="none" stroke="#000000" d="M380.2004,-289.6621C371.6903,-277.8788 360.2523,-262.0416 351.7529,-250.2733"/>
</g>
<!-- VO&#45;&#45;hf -->
<g id="edge13" class="edge">
<title>VO&#45;&#45;hf</title>
<path fill="none" stroke="#000000" d="M398.3877,-288.4174C404.1904,-269.2339 410.0356,-238.2889 397,-216 353.4127,-141.4723 247.7407,-107.6228 198.741,-95.5369"/>
</g>
<!-- aa&#45;&#45;hf -->
<g id="edge18" class="edge">
<title>aa&#45;&#45;hf</title>
<path fill="none" stroke="#000000" d="M200.2854,-144.5708C194.6253,-133.2506 187.2784,-118.5568 181.6343,-107.2687"/>
</g>
<!-- end&#45;&#45;aa -->
<g id="edge15" class="edge">
<title>end&#45;&#45;aa</title>
<path fill="none" stroke="#000000" d="M102.6874,-222.2717C126.3038,-208.8829 164.7087,-187.11 188.3215,-173.7233"/>
</g>
<!-- end&#45;&#45;HA -->
<g id="edge7" class="edge">
<title>end&#45;&#45;HA</title>
<path fill="none" stroke="#000000" d="M82,-215.9555C82,-175.2967 82,-76.8988 82,-36.1451"/>
</g>
<!-- start&#45;&#45;qi -->
<g id="edge14" class="edge">
<title>start&#45;&#45;qi</title>
<path fill="none" stroke="#000000" d="M335.5776,-251.7972C330.6224,-270.3574 321.7227,-300.0314 310,-324 303.4656,-337.3606 294.0985,-351.3 286.5572,-361.6691"/>
</g>
<!-- hf&#45;&#45;UD -->
<g id="edge17" class="edge">
<title>hf&#45;&#45;UD</title>
<path fill="none" stroke="#000000" d="M195.1671,-100.7737C211.5948,-109.949 233.1151,-124.7113 245,-144 273.3277,-189.9747 275.6345,-256.3645 274.9016,-287.9663"/>
</g>
<!-- hf&#45;&#45;HA -->
<g id="edge16" class="edge">
<title>hf&#45;&#45;HA</title>
<path fill="none" stroke="#000000" d="M155.4543,-76.1177C139.3403,-63.3681 115.5888,-44.5758 99.4919,-31.8397"/>
</g>
<!-- KX -->
<g id="node13" class="node">
<title>KX</title>
<ellipse fill="none" stroke="#000000" cx="192" cy="-306" rx="27" ry="18"/>
<text text-anchor="middle" x="192" y="-302.3" font-family="Times,serif" font-size="14.00" fill="#000000">KX</text>
</g>
<!-- KX&#45;&#45;wb -->
<g id="edge23" class="edge">
<title>KX&#45;&#45;wb</title>
<path fill="none" stroke="#000000" d="M192,-287.8314C192,-277 192,-263.2876 192,-252.4133"/>
</g>
</g>
</svg>
