<?xml version="1.0" encoding="UTF-8" standalone="no"?>
<!DOCTYPE svg PUBLIC "-//W3C//DTD SVG 1.1//EN"
 "http://www.w3.org/Graphics/SVG/1.1/DTD/svg11.dtd">
<!-- Generated by graphviz version 2.40.1 (20161225.0304)
 -->
<!-- Title: Caves Pages: 1 -->
<svg width="342pt" height="476pt"
 viewBox="0.00 0.00 342.00 476.00" xmlns="http://www.w3.org/2000/svg" xmlns:xlink="http://www.w3.org/1999/xlink">
<g id="graph0" class="graph" transform="scale(1 1) rotate(0) translate(4 472)">
<title>Caves</title>
<polygon fill="#ffffff" stroke="transparent" points="-4,4 -4,-472 338,-472 338,4 -4,4"/>
<!-- fs -->
<g id="node1" class="node">
<title>fs</title>
<ellipse fill="none" stroke="#000000" cx="175" cy="-450" rx="27" ry="18"/>
<text text-anchor="middle" x="175" y="-446.3" font-family="Times,serif" font-size="14.00" fill="#000000">fs</text>
</g>
<!-- end -->
<g id="node2" class="node">
<title>end</title>
<ellipse fill="none" stroke="#000000" cx="148" cy="-378" rx="27" ry="18"/>
<text text-anchor="middle" x="148" y="-374.3" font-family="Times,serif" font-size="14.00" fill="#000000">end</text>
</g>
<!-- fs&#45;&#45;end -->
<g id="edge1" class="edge">
<title>fs&#45;&#45;end</title>
<path fill="none" stroke="#000000" d="M168.3258,-432.2022C164.1407,-421.0419 158.7679,-406.7143 154.5974,-395.593"/>
</g>
<!-- he -->
<g id="node3" class="node">
<title>he</title>
<ellipse fill="none" stroke="#000000" cx="148" cy="-90" rx="27" ry="18"/>
<text text-anchor="middle" x="148" y="-86.3" font-family="Times,serif" font-size="14.00" fill="#000000">he</text>
</g>
<!-- fs&#45;&#45;he -->
<g id="edge3" class="edge">
<title>fs&#45;&#45;he</title>
<path fill="none" stroke="#000000" d="M150.2979,-442.562C102.0591,-426.3369 0,-382.9203 0,-306 0,-306 0,-306 0,-234 0,-165.1685 83.25,-118.5842 124.875,-99.5941"/>
</g>
<!-- DX -->
<g id="node4" class="node">
<title>DX</title>
<ellipse fill="none" stroke="#000000" cx="277" cy="-18" rx="27" ry="18"/>
<text text-anchor="middle" x="277" y="-14.3" font-family="Times,serif" font-size="14.00" fill="#000000">DX</text>
</g>
<!-- fs&#45;&#45;DX -->
<g id="edge11" class="edge">
<title>fs&#45;&#45;DX</title>
<path fill="none" stroke="#000000" d="M198.8039,-441.3278C243.1596,-423.458 334,-378.0639 334,-306 334,-306 334,-306 334,-162 334,-112.7962 304.8729,-60.3542 288.2614,-34.4469"/>
</g>
<!-- zg -->
<g id="node7" class="node">
<title>zg</title>
<ellipse fill="none" stroke="#000000" cx="148" cy="-306" rx="27" ry="18"/>
<text text-anchor="middle" x="148" y="-302.3" font-family="Times,serif" font-size="14.00" fill="#000000">zg</text>
</g>
<!-- end&#45;&#45;zg -->
<g id="edge6" class="edge">
<title>end&#45;&#45;zg</title>
<path fill="none" stroke="#000000" d="M148,-359.8314C148,-349 148,-335.2876 148,-324.4133"/>
</g>
<!-- he&#45;&#45;DX -->
<g id="edge2" class="edge">
<title>he&#45;&#45;DX</title>
<path fill="none" stroke="#000000" d="M168.7261,-78.432C192.6564,-65.0755 231.8079,-43.2235 255.8968,-29.7785"/>
</g>
<!-- WI -->
<g id="node10" class="node">
<title>WI</title>
<ellipse fill="none" stroke="#000000" cx="148" cy="-18" rx="27" ry="18"/>
<text text-anchor="middle" x="148" y="-14.3" font-family="Times,serif" font-size="14.00" fill="#000000">WI</text>
</g>
<!-- he&#45;&#45;WI -->
<g id="edge15" class="edge">
<title>he&#45;&#45;WI</title>
<path fill="none" stroke="#000000" d="M148,-71.8314C148,-61 148,-47.2876 148,-36.4133"/>
</g>
<!-- start -->
<g id="node5" class="node">
<title>start</title>
<ellipse fill="none" stroke="#000000" cx="258" cy="-306" rx="27" ry="18"/>
<text text-anchor="middle" x="258" y="-302.3" font-family="Times,serif" font-size="14.00" fill="#000000">start</text>
</g>
<!-- start&#45;&#45;DX -->
<g id="edge4" class="edge">
<title>start&#45;&#45;DX</title>
<path fill="none" stroke="#000000" d="M260.5493,-288.0325C265.3301,-253.3291 275.4769,-174.6228 279,-108 279.8449,-92.0223 279.2961,-87.9973 279,-72 278.7777,-59.9938 278.2777,-46.4938 277.8333,-35.9954"/>
</g>
<!-- pj -->
<g id="node6" class="node">
<title>pj</title>
<ellipse fill="none" stroke="#000000" cx="203" cy="-234" rx="27" ry="18"/>
<text text-anchor="middle" x="203" y="-230.3" font-family="Times,serif" font-size="14.00" fill="#000000">pj</text>
</g>
<!-- start&#45;&#45;pj -->
<g id="edge14" class="edge">
<title>start&#45;&#45;pj</title>
<path fill="none" stroke="#000000" d="M245.5196,-289.6621C236.5186,-277.8788 224.4207,-262.0416 215.431,-250.2733"/>
</g>
<!-- RW -->
<g id="node9" class="node">
<title>RW</title>
<ellipse fill="none" stroke="#000000" cx="203" cy="-162" rx="27" ry="18"/>
<text text-anchor="middle" x="203" y="-158.3" font-family="Times,serif" font-size="14.00" fill="#000000">RW</text>
</g>
<!-- start&#45;&#45;RW -->
<g id="edge18" class="edge">
<title>start&#45;&#45;RW</title>
<path fill="none" stroke="#000000" d="M256.2095,-287.8083C253.9112,-269.1875 248.9655,-239.7008 239,-216 233.2352,-202.2898 223.8441,-188.3613 216.0989,-178.0847"/>
</g>
<!-- pj&#45;&#45;fs -->
<g id="edge17" class="edge">
<title>pj&#45;&#45;fs</title>
<path fill="none" stroke="#000000" d="M201.1748,-252.0161C198.0765,-281.9625 191.3994,-343.8513 184,-396 182.2909,-408.0449 180.0409,-421.5449 178.2182,-432.0337"/>
</g>
<!-- pj&#45;&#45;he -->
<g id="edge9" class="edge">
<title>pj&#45;&#45;he</title>
<path fill="none" stroke="#000000" d="M189.9011,-217.9153C182.1559,-207.6387 172.7648,-193.7102 167,-180 157.0345,-156.2992 152.0888,-126.8125 149.7905,-108.1917"/>
</g>
<!-- pj&#45;&#45;DX -->
<g id="edge5" class="edge">
<title>pj&#45;&#45;DX</title>
<path fill="none" stroke="#000000" d="M215.9914,-217.8693C223.696,-207.5755 233.0824,-193.645 239,-180 260.4939,-130.4388 270.8628,-66.8427 274.8908,-36.1609"/>
</g>
<!-- pj&#45;&#45;RW -->
<g id="edge12" class="edge">
<title>pj&#45;&#45;RW</title>
<path fill="none" stroke="#000000" d="M203,-215.8314C203,-205 203,-191.2876 203,-180.4133"/>
</g>
<!-- zg&#45;&#45;he -->
<g id="edge16" class="edge">
<title>zg&#45;&#45;he</title>
<path fill="none" stroke="#000000" d="M148,-287.9555C148,-247.2967 148,-148.8988 148,-108.1451"/>
</g>
<!-- zg&#45;&#45;pj -->
<g id="edge8" class="edge">
<title>zg&#45;&#45;pj</title>
<path fill="none" stroke="#000000" d="M160.4804,-289.6621C169.4814,-277.8788 181.5793,-262.0416 190.569,-250.2733"/>
</g>
<!-- sl -->
<g id="node8" class="node">
<title>sl</title>
<ellipse fill="none" stroke="#000000" cx="55" cy="-234" rx="27" ry="18"/>
<text text-anchor="middle" x="55" y="-230.3" font-family="Times,serif" font-size="14.00" fill="#000000">sl</text>
</g>
<!-- zg&#45;&#45;sl -->
<g id="edge7" class="edge">
<title>zg&#45;&#45;sl</title>
<path fill="none" stroke="#000000" d="M130.0687,-292.1177C113.6005,-279.3681 89.3271,-260.5758 72.8763,-247.8397"/>
</g>
<!-- zg&#45;&#45;RW -->
<g id="edge13" class="edge">
<title>zg&#45;&#45;RW</title>
<path fill="none" stroke="#000000" d="M149.7905,-287.8083C152.0888,-269.1875 157.0345,-239.7008 167,-216 172.7648,-202.2898 182.1559,-188.3613 189.9011,-178.0847"/>
</g>
<!-- RW&#45;&#45;he -->
<g id="edge10" class="edge">
<title>RW&#45;&#45;he</title>
<path fill="none" stroke="#000000" d="M190.5196,-145.6621C181.5186,-133.8788 169.4207,-118.0416 160.431,-106.2733"/>
</g>
</g>
</svg>
