<?xml version="1.0" encoding="UTF-8" standalone="no"?>
<!DOCTYPE svg PUBLIC "-//W3C//DTD SVG 1.1//EN"
 "http://www.w3.org/Graphics/SVG/1.1/DTD/svg11.dtd">
<!-- Generated by graphviz version 2.40.1 (20161225.0304)
 -->
<!-- Title: Foo Pages: 1 -->
<svg width="578pt" height="620pt"
 viewBox="0.00 0.00 577.69 620.00" xmlns="http://www.w3.org/2000/svg" xmlns:xlink="http://www.w3.org/1999/xlink">
<g id="graph0" class="graph" transform="scale(1 1) rotate(0) translate(4 616)">
<title>Foo</title>
<polygon fill="#ffffff" stroke="transparent" points="-4,4 -4,-616 573.6932,-616 573.6932,4 -4,4"/>
<!-- Node0 -->
<g id="node1" class="node">
<title>Node0</title>
<ellipse fill="none" stroke="#000000" cx="292.3466" cy="-594" rx="34.394" ry="18"/>
<text text-anchor="middle" x="292.3466" y="-590.3" font-family="Times,serif" font-size="14.00" fill="#000000">Node0</text>
</g>
<!-- Node8 -->
<g id="node2" class="node">
<title>Node8</title>
<ellipse fill="none" stroke="#000000" cx="247.3466" cy="-522" rx="34.394" ry="18"/>
<text text-anchor="middle" x="247.3466" y="-518.3" font-family="Times,serif" font-size="14.00" fill="#000000">Node8</text>
</g>
<!-- Node0&#45;&gt;Node8 -->
<g id="edge1" class="edge">
<title>Node0&#45;&gt;Node8</title>
<path fill="none" stroke="#000000" d="M281.4534,-576.5708C276.0917,-567.9922 269.5192,-557.4762 263.5798,-547.9732"/>
<polygon fill="#000000" stroke="#000000" points="266.4076,-545.8937 258.1395,-539.2687 260.4716,-549.6037 266.4076,-545.8937"/>
</g>
<!-- Node29 -->
<g id="node30" class="node">
<title>Node29</title>
<ellipse fill="none" stroke="#000000" cx="340.3466" cy="-522" rx="38.1938" ry="18"/>
<text text-anchor="middle" x="340.3466" y="-518.3" font-family="Times,serif" font-size="14.00" fill="#000000">Node29</text>
</g>
<!-- Node0&#45;&gt;Node29 -->
<g id="edge29" class="edge">
<title>Node0&#45;&gt;Node29</title>
<path fill="none" stroke="#000000" d="M303.7219,-576.937C309.4953,-568.277 316.6312,-557.5731 323.0661,-547.9207"/>
<polygon fill="#000000" stroke="#000000" points="326.0846,-549.7027 328.7195,-539.4407 320.2603,-545.8197 326.0846,-549.7027"/>
</g>
<!-- Node2 -->
<g id="node3" class="node">
<title>Node2</title>
<ellipse fill="none" stroke="#000000" cx="154.3466" cy="-450" rx="34.394" ry="18"/>
<text text-anchor="middle" x="154.3466" y="-446.3" font-family="Times,serif" font-size="14.00" fill="#000000">Node2</text>
</g>
<!-- Node8&#45;&gt;Node2 -->
<g id="edge2" class="edge">
<title>Node8&#45;&gt;Node2</title>
<path fill="none" stroke="#000000" d="M227.6237,-506.7307C214.3414,-496.4476 196.6376,-482.7414 181.9589,-471.3773"/>
<polygon fill="#000000" stroke="#000000" points="183.7721,-468.3547 173.7222,-465.0004 179.4868,-473.8898 183.7721,-468.3547"/>
</g>
<!-- Node15 -->
<g id="node10" class="node">
<title>Node15</title>
<ellipse fill="none" stroke="#000000" cx="247.3466" cy="-450" rx="38.1938" ry="18"/>
<text text-anchor="middle" x="247.3466" y="-446.3" font-family="Times,serif" font-size="14.00" fill="#000000">Node15</text>
</g>
<!-- Node8&#45;&gt;Node15 -->
<g id="edge9" class="edge">
<title>Node8&#45;&gt;Node15</title>
<path fill="none" stroke="#000000" d="M247.3466,-503.8314C247.3466,-496.131 247.3466,-486.9743 247.3466,-478.4166"/>
<polygon fill="#000000" stroke="#000000" points="250.8467,-478.4132 247.3466,-468.4133 243.8467,-478.4133 250.8467,-478.4132"/>
</g>
<!-- Node20 -->
<g id="node4" class="node">
<title>Node20</title>
<ellipse fill="none" stroke="#000000" cx="133.3466" cy="-378" rx="38.1938" ry="18"/>
<text text-anchor="middle" x="133.3466" y="-374.3" font-family="Times,serif" font-size="14.00" fill="#000000">Node20</text>
</g>
<!-- Node2&#45;&gt;Node20 -->
<g id="edge3" class="edge">
<title>Node2&#45;&gt;Node20</title>
<path fill="none" stroke="#000000" d="M149.1556,-432.2022C146.8082,-424.1541 143.9804,-414.4588 141.3694,-405.5067"/>
<polygon fill="#000000" stroke="#000000" points="144.7107,-404.4625 138.5507,-395.8425 137.9907,-406.4226 144.7107,-404.4625"/>
</g>
<!-- Node12 -->
<g id="node5" class="node">
<title>Node12</title>
<ellipse fill="none" stroke="#000000" cx="38.3466" cy="-306" rx="38.1938" ry="18"/>
<text text-anchor="middle" x="38.3466" y="-302.3" font-family="Times,serif" font-size="14.00" fill="#000000">Node12</text>
</g>
<!-- Node20&#45;&gt;Node12 -->
<g id="edge4" class="edge">
<title>Node20&#45;&gt;Node12</title>
<path fill="none" stroke="#000000" d="M112.733,-362.3771C99.3214,-352.2125 81.6458,-338.8162 66.8899,-327.6328"/>
<polygon fill="#000000" stroke="#000000" points="68.6774,-324.5959 58.5936,-321.3451 64.4492,-330.1747 68.6774,-324.5959"/>
</g>
<!-- Node25 -->
<g id="node6" class="node">
<title>Node25</title>
<ellipse fill="none" stroke="#000000" cx="133.3466" cy="-306" rx="38.1938" ry="18"/>
<text text-anchor="middle" x="133.3466" y="-302.3" font-family="Times,serif" font-size="14.00" fill="#000000">Node25</text>
</g>
<!-- Node20&#45;&gt;Node25 -->
<g id="edge5" class="edge">
<title>Node20&#45;&gt;Node25</title>
<path fill="none" stroke="#000000" d="M133.3466,-359.8314C133.3466,-352.131 133.3466,-342.9743 133.3466,-334.4166"/>
<polygon fill="#000000" stroke="#000000" points="136.8467,-334.4132 133.3466,-324.4133 129.8467,-334.4133 136.8467,-334.4132"/>
</g>
<!-- Node5 -->
<g id="node7" class="node">
<title>Node5</title>
<ellipse fill="none" stroke="#000000" cx="124.3466" cy="-234" rx="34.394" ry="18"/>
<text text-anchor="middle" x="124.3466" y="-230.3" font-family="Times,serif" font-size="14.00" fill="#000000">Node5</text>
</g>
<!-- Node25&#45;&gt;Node5 -->
<g id="edge6" class="edge">
<title>Node25&#45;&gt;Node5</title>
<path fill="none" stroke="#000000" d="M131.0755,-287.8314C130.113,-280.131 128.9684,-270.9743 127.8987,-262.4166"/>
<polygon fill="#000000" stroke="#000000" points="131.3617,-261.9019 126.6483,-252.4133 124.4157,-262.7702 131.3617,-261.9019"/>
</g>
<!-- Node30 -->
<g id="node8" class="node">
<title>Node30</title>
<ellipse fill="none" stroke="#000000" cx="89.3466" cy="-162" rx="38.1938" ry="18"/>
<text text-anchor="middle" x="89.3466" y="-158.3" font-family="Times,serif" font-size="14.00" fill="#000000">Node30</text>
</g>
<!-- Node5&#45;&gt;Node30 -->
<g id="edge7" class="edge">
<title>Node5&#45;&gt;Node30</title>
<path fill="none" stroke="#000000" d="M115.6949,-216.2022C111.6684,-207.9192 106.7938,-197.8915 102.3378,-188.7248"/>
<polygon fill="#000000" stroke="#000000" points="105.4185,-187.0565 97.8988,-179.593 99.123,-190.1169 105.4185,-187.0565"/>
</g>
<!-- Node3 -->
<g id="node9" class="node">
<title>Node3</title>
<ellipse fill="none" stroke="#000000" cx="78.3466" cy="-90" rx="34.394" ry="18"/>
<text text-anchor="middle" x="78.3466" y="-86.3" font-family="Times,serif" font-size="14.00" fill="#000000">Node3</text>
</g>
<!-- Node30&#45;&gt;Node3 -->
<g id="edge8" class="edge">
<title>Node30&#45;&gt;Node3</title>
<path fill="none" stroke="#000000" d="M86.5708,-143.8314C85.3944,-136.131 83.9955,-126.9743 82.688,-118.4166"/>
<polygon fill="#000000" stroke="#000000" points="86.1299,-117.7699 81.1597,-108.4133 79.2102,-118.8272 86.1299,-117.7699"/>
</g>
<!-- Node21 -->
<g id="node11" class="node">
<title>Node21</title>
<ellipse fill="none" stroke="#000000" cx="247.3466" cy="-378" rx="38.1938" ry="18"/>
<text text-anchor="middle" x="247.3466" y="-374.3" font-family="Times,serif" font-size="14.00" fill="#000000">Node21</text>
</g>
<!-- Node15&#45;&gt;Node21 -->
<g id="edge10" class="edge">
<title>Node15&#45;&gt;Node21</title>
<path fill="none" stroke="#000000" d="M247.3466,-431.8314C247.3466,-424.131 247.3466,-414.9743 247.3466,-406.4166"/>
<polygon fill="#000000" stroke="#000000" points="250.8467,-406.4132 247.3466,-396.4133 243.8467,-406.4133 250.8467,-406.4132"/>
</g>
<!-- Node27 -->
<g id="node23" class="node">
<title>Node27</title>
<ellipse fill="none" stroke="#000000" cx="342.3466" cy="-378" rx="38.1938" ry="18"/>
<text text-anchor="middle" x="342.3466" y="-374.3" font-family="Times,serif" font-size="14.00" fill="#000000">Node27</text>
</g>
<!-- Node15&#45;&gt;Node27 -->
<g id="edge22" class="edge">
<title>Node15&#45;&gt;Node27</title>
<path fill="none" stroke="#000000" d="M267.9602,-434.3771C281.3718,-424.2125 299.0474,-410.8162 313.8033,-399.6328"/>
<polygon fill="#000000" stroke="#000000" points="316.244,-402.1747 322.0996,-393.3451 312.0158,-396.5959 316.244,-402.1747"/>
</g>
<!-- Node7 -->
<g id="node12" class="node">
<title>Node7</title>
<ellipse fill="none" stroke="#000000" cx="248.3466" cy="-306" rx="34.394" ry="18"/>
<text text-anchor="middle" x="248.3466" y="-302.3" font-family="Times,serif" font-size="14.00" fill="#000000">Node7</text>
</g>
<!-- Node21&#45;&gt;Node7 -->
<g id="edge11" class="edge">
<title>Node21&#45;&gt;Node7</title>
<path fill="none" stroke="#000000" d="M247.5989,-359.8314C247.7059,-352.131 247.8331,-342.9743 247.9519,-334.4166"/>
<polygon fill="#000000" stroke="#000000" points="251.4515,-334.4609 248.0909,-324.4133 244.4522,-334.3637 251.4515,-334.4609"/>
</g>
<!-- Node24 -->
<g id="node13" class="node">
<title>Node24</title>
<ellipse fill="none" stroke="#000000" cx="252.3466" cy="-234" rx="38.1938" ry="18"/>
<text text-anchor="middle" x="252.3466" y="-230.3" font-family="Times,serif" font-size="14.00" fill="#000000">Node24</text>
</g>
<!-- Node7&#45;&gt;Node24 -->
<g id="edge12" class="edge">
<title>Node7&#45;&gt;Node24</title>
<path fill="none" stroke="#000000" d="M249.356,-287.8314C249.7838,-280.131 250.2925,-270.9743 250.7679,-262.4166"/>
<polygon fill="#000000" stroke="#000000" points="254.2635,-262.592 251.3236,-252.4133 247.2742,-262.2037 254.2635,-262.592"/>
</g>
<!-- Node4 -->
<g id="node14" class="node">
<title>Node4</title>
<ellipse fill="none" stroke="#000000" cx="252.3466" cy="-162" rx="34.394" ry="18"/>
<text text-anchor="middle" x="252.3466" y="-158.3" font-family="Times,serif" font-size="14.00" fill="#000000">Node4</text>
</g>
<!-- Node24&#45;&gt;Node4 -->
<g id="edge13" class="edge">
<title>Node24&#45;&gt;Node4</title>
<path fill="none" stroke="#000000" d="M252.3466,-215.8314C252.3466,-208.131 252.3466,-198.9743 252.3466,-190.4166"/>
<polygon fill="#000000" stroke="#000000" points="255.8467,-190.4132 252.3466,-180.4133 248.8467,-190.4133 255.8467,-190.4132"/>
</g>
<!-- Node26 -->
<g id="node21" class="node">
<title>Node26</title>
<ellipse fill="none" stroke="#000000" cx="390.3466" cy="-162" rx="38.1938" ry="18"/>
<text text-anchor="middle" x="390.3466" y="-158.3" font-family="Times,serif" font-size="14.00" fill="#000000">Node26</text>
</g>
<!-- Node24&#45;&gt;Node26 -->
<g id="edge20" class="edge">
<title>Node24&#45;&gt;Node26</title>
<path fill="none" stroke="#000000" d="M278.3033,-220.4574C300.0843,-209.0934 331.3927,-192.7585 355.3801,-180.2434"/>
<polygon fill="#000000" stroke="#000000" points="357.2594,-183.2107 364.5062,-175.4819 354.0214,-177.0046 357.2594,-183.2107"/>
</g>
<!-- Node6 -->
<g id="node15" class="node">
<title>Node6</title>
<ellipse fill="none" stroke="#000000" cx="165.3466" cy="-90" rx="34.394" ry="18"/>
<text text-anchor="middle" x="165.3466" y="-86.3" font-family="Times,serif" font-size="14.00" fill="#000000">Node6</text>
</g>
<!-- Node4&#45;&gt;Node6 -->
<g id="edge14" class="edge">
<title>Node4&#45;&gt;Node6</title>
<path fill="none" stroke="#000000" d="M233.8961,-146.7307C221.6695,-136.6121 205.4378,-123.179 191.8385,-111.9243"/>
<polygon fill="#000000" stroke="#000000" points="193.7059,-108.9267 183.7705,-105.2473 189.2429,-114.3194 193.7059,-108.9267"/>
</g>
<!-- Node9 -->
<g id="node18" class="node">
<title>Node9</title>
<ellipse fill="none" stroke="#000000" cx="252.3466" cy="-90" rx="34.394" ry="18"/>
<text text-anchor="middle" x="252.3466" y="-86.3" font-family="Times,serif" font-size="14.00" fill="#000000">Node9</text>
</g>
<!-- Node4&#45;&gt;Node9 -->
<g id="edge17" class="edge">
<title>Node4&#45;&gt;Node9</title>
<path fill="none" stroke="#000000" d="M252.3466,-143.8314C252.3466,-136.131 252.3466,-126.9743 252.3466,-118.4166"/>
<polygon fill="#000000" stroke="#000000" points="255.8467,-118.4132 252.3466,-108.4133 248.8467,-118.4133 255.8467,-118.4132"/>
</g>
<!-- Node19 -->
<g id="node20" class="node">
<title>Node19</title>
<ellipse fill="none" stroke="#000000" cx="343.3466" cy="-90" rx="38.1938" ry="18"/>
<text text-anchor="middle" x="343.3466" y="-86.3" font-family="Times,serif" font-size="14.00" fill="#000000">Node19</text>
</g>
<!-- Node4&#45;&gt;Node19 -->
<g id="edge19" class="edge">
<title>Node4&#45;&gt;Node19</title>
<path fill="none" stroke="#000000" d="M271.6454,-146.7307C284.4675,-136.5856 301.5008,-123.1087 315.7482,-111.8361"/>
<polygon fill="#000000" stroke="#000000" points="318.0914,-114.4452 323.7619,-105.4956 313.748,-108.9556 318.0914,-114.4452"/>
</g>
<!-- Node13 -->
<g id="node16" class="node">
<title>Node13</title>
<ellipse fill="none" stroke="#000000" cx="70.3466" cy="-18" rx="38.1938" ry="18"/>
<text text-anchor="middle" x="70.3466" y="-14.3" font-family="Times,serif" font-size="14.00" fill="#000000">Node13</text>
</g>
<!-- Node6&#45;&gt;Node13 -->
<g id="edge15" class="edge">
<title>Node6&#45;&gt;Node13</title>
<path fill="none" stroke="#000000" d="M145.6625,-75.0816C132.0892,-64.7944 113.837,-50.9611 98.7002,-39.489"/>
<polygon fill="#000000" stroke="#000000" points="100.7447,-36.6469 90.6609,-33.3961 96.5165,-42.2257 100.7447,-36.6469"/>
</g>
<!-- Node18 -->
<g id="node17" class="node">
<title>Node18</title>
<ellipse fill="none" stroke="#000000" cx="165.3466" cy="-18" rx="38.1938" ry="18"/>
<text text-anchor="middle" x="165.3466" y="-14.3" font-family="Times,serif" font-size="14.00" fill="#000000">Node18</text>
</g>
<!-- Node6&#45;&gt;Node18 -->
<g id="edge16" class="edge">
<title>Node6&#45;&gt;Node18</title>
<path fill="none" stroke="#000000" d="M165.3466,-71.8314C165.3466,-64.131 165.3466,-54.9743 165.3466,-46.4166"/>
<polygon fill="#000000" stroke="#000000" points="168.8467,-46.4132 165.3466,-36.4133 161.8467,-46.4133 168.8467,-46.4132"/>
</g>
<!-- Node14 -->
<g id="node19" class="node">
<title>Node14</title>
<ellipse fill="none" stroke="#000000" cx="260.3466" cy="-18" rx="38.1938" ry="18"/>
<text text-anchor="middle" x="260.3466" y="-14.3" font-family="Times,serif" font-size="14.00" fill="#000000">Node14</text>
</g>
<!-- Node9&#45;&gt;Node14 -->
<g id="edge18" class="edge">
<title>Node9&#45;&gt;Node14</title>
<path fill="none" stroke="#000000" d="M254.3653,-71.8314C255.2209,-64.131 256.2383,-54.9743 257.1892,-46.4166"/>
<polygon fill="#000000" stroke="#000000" points="260.6749,-46.7386 258.3007,-36.4133 253.7177,-45.9656 260.6749,-46.7386"/>
</g>
<!-- Node16 -->
<g id="node22" class="node">
<title>Node16</title>
<ellipse fill="none" stroke="#000000" cx="438.3466" cy="-90" rx="38.1938" ry="18"/>
<text text-anchor="middle" x="438.3466" y="-86.3" font-family="Times,serif" font-size="14.00" fill="#000000">Node16</text>
</g>
<!-- Node26&#45;&gt;Node16 -->
<g id="edge21" class="edge">
<title>Node26&#45;&gt;Node16</title>
<path fill="none" stroke="#000000" d="M401.9661,-144.5708C407.7441,-135.9038 414.8405,-125.2592 421.2269,-115.6796"/>
<polygon fill="#000000" stroke="#000000" points="424.1993,-117.5307 426.8341,-107.2687 418.3749,-113.6477 424.1993,-117.5307"/>
</g>
<!-- Node11 -->
<g id="node24" class="node">
<title>Node11</title>
<ellipse fill="none" stroke="#000000" cx="341.3466" cy="-306" rx="38.1938" ry="18"/>
<text text-anchor="middle" x="341.3466" y="-302.3" font-family="Times,serif" font-size="14.00" fill="#000000">Node11</text>
</g>
<!-- Node27&#45;&gt;Node11 -->
<g id="edge23" class="edge">
<title>Node27&#45;&gt;Node11</title>
<path fill="none" stroke="#000000" d="M342.0943,-359.8314C341.9873,-352.131 341.8601,-342.9743 341.7413,-334.4166"/>
<polygon fill="#000000" stroke="#000000" points="345.241,-334.3637 341.6023,-324.4133 338.2416,-334.4609 345.241,-334.3637"/>
</g>
<!-- Node22 -->
<g id="node25" class="node">
<title>Node22</title>
<ellipse fill="none" stroke="#000000" cx="436.3466" cy="-306" rx="38.1938" ry="18"/>
<text text-anchor="middle" x="436.3466" y="-302.3" font-family="Times,serif" font-size="14.00" fill="#000000">Node22</text>
</g>
<!-- Node27&#45;&gt;Node22 -->
<g id="edge24" class="edge">
<title>Node27&#45;&gt;Node22</title>
<path fill="none" stroke="#000000" d="M362.7432,-362.3771C375.9234,-352.2816 393.2654,-338.9983 407.8054,-327.8614"/>
<polygon fill="#000000" stroke="#000000" points="410.1793,-330.4518 415.9898,-321.5924 405.9227,-324.8947 410.1793,-330.4518"/>
</g>
<!-- Node1 -->
<g id="node26" class="node">
<title>Node1</title>
<ellipse fill="none" stroke="#000000" cx="345.3466" cy="-234" rx="34.394" ry="18"/>
<text text-anchor="middle" x="345.3466" y="-230.3" font-family="Times,serif" font-size="14.00" fill="#000000">Node1</text>
</g>
<!-- Node22&#45;&gt;Node1 -->
<g id="edge25" class="edge">
<title>Node22&#45;&gt;Node1</title>
<path fill="none" stroke="#000000" d="M416.601,-290.3771C403.6666,-280.1433 386.5921,-266.6338 372.4,-255.4049"/>
<polygon fill="#000000" stroke="#000000" points="374.444,-252.5591 364.4301,-249.099 370.1006,-258.0487 374.444,-252.5591"/>
</g>
<!-- Node17 -->
<g id="node27" class="node">
<title>Node17</title>
<ellipse fill="none" stroke="#000000" cx="436.3466" cy="-234" rx="38.1938" ry="18"/>
<text text-anchor="middle" x="436.3466" y="-230.3" font-family="Times,serif" font-size="14.00" fill="#000000">Node17</text>
</g>
<!-- Node22&#45;&gt;Node17 -->
<g id="edge26" class="edge">
<title>Node22&#45;&gt;Node17</title>
<path fill="none" stroke="#000000" d="M436.3466,-287.8314C436.3466,-280.131 436.3466,-270.9743 436.3466,-262.4166"/>
<polygon fill="#000000" stroke="#000000" points="439.8467,-262.4132 436.3466,-252.4133 432.8467,-262.4133 439.8467,-262.4132"/>
</g>
<!-- Node23 -->
<g id="node28" class="node">
<title>Node23</title>
<ellipse fill="none" stroke="#000000" cx="531.3466" cy="-234" rx="38.1938" ry="18"/>
<text text-anchor="middle" x="531.3466" y="-230.3" font-family="Times,serif" font-size="14.00" fill="#000000">Node23</text>
</g>
<!-- Node22&#45;&gt;Node23 -->
<g id="edge27" class="edge">
<title>Node22&#45;&gt;Node23</title>
<path fill="none" stroke="#000000" d="M456.9602,-290.3771C470.3718,-280.2125 488.0474,-266.8162 502.8033,-255.6328"/>
<polygon fill="#000000" stroke="#000000" points="505.244,-258.1747 511.0996,-249.3451 501.0158,-252.5959 505.244,-258.1747"/>
</g>
<!-- Node10 -->
<g id="node29" class="node">
<title>Node10</title>
<ellipse fill="none" stroke="#000000" cx="531.3466" cy="-162" rx="38.1938" ry="18"/>
<text text-anchor="middle" x="531.3466" y="-158.3" font-family="Times,serif" font-size="14.00" fill="#000000">Node10</text>
</g>
<!-- Node23&#45;&gt;Node10 -->
<g id="edge28" class="edge">
<title>Node23&#45;&gt;Node10</title>
<path fill="none" stroke="#000000" d="M531.3466,-215.8314C531.3466,-208.131 531.3466,-198.9743 531.3466,-190.4166"/>
<polygon fill="#000000" stroke="#000000" points="534.8467,-190.4132 531.3466,-180.4133 527.8467,-190.4133 534.8467,-190.4132"/>
</g>
<!-- Node28 -->
<g id="node31" class="node">
<title>Node28</title>
<ellipse fill="none" stroke="#000000" cx="342.3466" cy="-450" rx="38.1938" ry="18"/>
<text text-anchor="middle" x="342.3466" y="-446.3" font-family="Times,serif" font-size="14.00" fill="#000000">Node28</text>
</g>
<!-- Node29&#45;&gt;Node28 -->
<g id="edge30" class="edge">
<title>Node29&#45;&gt;Node28</title>
<path fill="none" stroke="#000000" d="M340.8513,-503.8314C341.0652,-496.131 341.3195,-486.9743 341.5572,-478.4166"/>
<polygon fill="#000000" stroke="#000000" points="345.056,-478.5066 341.8351,-468.4133 338.0587,-478.3122 345.056,-478.5066"/>
</g>
</g>
</svg>
